<svg id="Layer_1" data-name="Layer 1" xmlns="http://www.w3.org/2000/svg" viewBox="0 0 1626.22 603.82"><defs><style>.cls-1,.cls-2{fill:#fff;}.cls-2{stroke:#000;stroke-miterlimit:10;stroke-width:12px;}.cls-3{font-size:102px;font-family:ForteMT, Forte;}.cls-4{letter-spacing:-0.06em;}</style></defs><path d="M1499.71,739.66a23.82,23.82,0,0,0-3.58-5.77c-.5-.59-2.43-.6-3.21-.1-.61.4-.91,2.13-.6,3,.86,2.43,1.83,4.82,2.58,7.32h6.6C1500.94,742.61,1500.36,741.12,1499.71,739.66Z" transform="translate(-534.56 -319.77)"/><path d="M1239.38,611.14a14.19,14.19,0,0,0,2,14.1c2.92,4,2.64,7.93,2.26,12.6-.35,4.17.62,9.64,3.21,12.6,4.51,5.16,7.13,10.56,6.79,17.09a33.67,33.67,0,0,0,8.06,24.35,20.19,20.19,0,0,1,3.15,4.58c2,4.48,3.8,9,5.49,13.63,1.8,4.88,2.88,10.09,5.2,14.68a13.54,13.54,0,0,0,11.35,7.79c6,.47,10.41,4,13.78,8.51.73,1,1.41,2,2.07,3h41.92c-2.76-7.54-3.41-15.77-3.05-24.24-6.14-1.62-11.77-3-17.36-4.62-1.46-.42-3.25-1-4.07-2-.94-1.25-1-3.18-1.36-4.82,1.39,0,3.19-.65,4.09,0,4.19,3,8.84,3.23,13.69,3.32,4,.06,5.65-1.51,6.13-5.62,1.61-13.78,3.77-27.51,5.42-41.29,1.48-12.24,3.07-24.5,3.71-36.8,1-18.77,6.65-24.69,24.62-33.93.64-.33,1.65-.76,2.14-.49,6.87,3.65,15.27,4.11,20.91,10.44,1.58,1.77,4.3,2.85,6.69,3.49,9.09,2.4,18.26,4.46,25.54,11,3.34,3,7.26,2.81,11.37,2.09,12.74-2.22,13.88-1.17,13.51,11.83,0,1.82,0,3.64,0,5.46l2,.4c.67-1.65,1.7-3.26,1.92-5,.34-2.59,0-5.26.16-7.88.45-5.85,3.35-8.32,9.22-8.92,4.85-.5,10.71-.11,14.19-2.71,5-3.71,8.31-2.62,12.78-.31,5.05,2.61,10.11,2.54,14.6-1.63,7.74-7.17,20.9-7.7,29.37-1.15,2.19,1.7,4,4,6.31,5.43,2.62,1.68,5.52,3.44,8.49,3.93s4.31,1.54,4.56,4.13c1.18,12.73,2.45,25.46,3.31,38.21.63,9.48-3.86,18.72-1.62,28.36.66,2.85.86,5.8,1.52,8.65a74.09,74.09,0,0,1-3.42,44.64h59.64c.23-.58.45-1.17.68-1.75,1.52-3.77,6-4.07,8.44-2.24a48.24,48.24,0,0,0,8.65-15.37,8.36,8.36,0,0,1,2.15-3.54,7.7,7.7,0,0,0,2.12-9.24c-1.34-3.39.44-5,2.71-7,1.67-1.43,3.85-3.39,4-5.27.57-6.57,4.5-11.37,7.58-16.63,2.66-4.54,4.54-9.15,2.9-14.52-1.75-5.78,0-10.36,4.13-14.74a15.06,15.06,0,0,0,3.54-8.46c.61-6.91-1-14.32.94-20.74,2-6.79.53-13,.56-19.43,0-2.77-.22-5.7.57-8.27,1.88-6.11,1.88-11.72-1.91-17.19-.87-1.25-.55-3.29-1-4.92-.8-3.21-1.79-6.38-2.57-9.59-.37-1.53-1.19-3.81-.5-4.61,5.14-5.9-.06-11-1.32-16.15-1-4.11-4.22-7.71-6.56-11.48-1.12-1.81-2.5-3.47-3.72-5.23-1.44-2.09-3.59-4-4.1-6.36-2.62-11.87-6.55-23.08-14.33-32.67a4.52,4.52,0,0,1-.61-2.55c-.37-10.67-5.07-16.48-14.42-21-8.13-3.91-17.4-7.18-20.48-17.3-2.18-7.16-7.35-11.63-13.44-15.28-3.44-2.06-7.41-3.45-10.35-6-3.57-3.13-6.43-6.77-11.92-4.48-.68.29-1.84-.23-2.63-.65-5.91-3.15-11.72-3.58-17.58.94-2.82-3.51-5.35-6.8-8-9.95-2.37-2.79-5.11-4.93-9.17-4.35-7.21,1-14.36,1.66-20.6-3.44a4.72,4.72,0,0,0-3.49-.86c-4,.83-6.76-1.15-9.43-3.67a59.31,59.31,0,0,0-4.78-3.67c-3.12-2.42-5.69-2.63-8.84.55-5.51,5.56-10,5.82-17.17,2.29a14.48,14.48,0,0,0-4.46-.86c-3.83-.46-7.78-.4-11.46-1.38-5.07-1.36-9.47-.36-13.75,2.19-5.62,3.34-11.58,3.35-17.68,1.8-2.39-.6-4.73-1.42-7.07-2.21-4.31-1.45-7.77-.08-10.88,3-4.79,4.74-9.68,9.37-14.44,14-9.31-7.09-12.55-6.35-19.55,1.65-4.05,4.63-10,7.65-15.06,11.32a5.76,5.76,0,0,1-2.59.92c-9.35,1.21-18.15,3.47-24.14,11.7-.75,1-2.27,1.51-3.42,2.28-2.92,2-5.8,4-8.76,5.88a17.32,17.32,0,0,1-4.75,2.57c-4.47,1.14-7.93,3.36-9.85,7.66-1.69,3.79-3.56,7.52-5,11.4-1,2.81-2.3,4.23-5.66,4.07-5.42-.25-6.7,1.27-7.43,6.65a8.57,8.57,0,0,1-1.51,3.28c-2.29,3.49-4.67,6.92-7,10.38-3.26,4.85-6.82,9.39-5,16.11.69,2.53.59,6.94-3.57,7.42-8.7,1-11.89,6.52-11.07,14.08s-5.38,14.42-1.1,22c.38.68-.53,2.41-1.25,3.33-3.16,4-3.06,8.21-.83,12.48,1.75,3.36.62,5.59-2,8-5.61,5.3-6.41,10.11-2.68,17.08C1240.44,601,1241.49,605.81,1239.38,611.14Zm409.8,63.91c3.8,3.72,3.22,6.53-2.19,8.23Zm-15.12,32.54c3.76,2.72,3.84,6.08,2.66,11.18C1634.23,714.66,1631.25,712.05,1634.06,707.59Zm-61,8c3.47-.83,7.14-.82,11.54-1.13-2.08,6.41-6.74,6.58-11.61,8.18C1573,719.83,1572.55,715.72,1573.06,715.6Zm-21.61-111.23a14.89,14.89,0,0,1,2.25,3c-1.37.66-2.86,2-4.1,1.83-2.3-.37-4.44-1.65-7.38-2.85C1545.56,603.29,1548.26,601.85,1551.45,604.37Zm-26.56-172.89c2.64,1.08,6.18.45,7.57,3.89l-1.08,1.68-7.17-4.34C1524.44,432.3,1524.67,431.89,1524.89,431.48Zm-25.16-21.58,2.73,5.55a15.44,15.44,0,0,1-2.6,1c-1-1.73-1.8-3.58-2.65-5.41Zm1.37,192.41c2.27.51,4.25,2.28,6.52,3.64-4,5.64-6.75,1.95-10.79.24C1498.59,604.52,1500.14,602.1,1501.1,602.31Zm-73.22-4.19c1.06-.15,2.26.75,4.53,1.61-2.17,1.54-3.35,3-4.47,3s-2.14-1.65-3.2-2.57C1425.78,599.43,1426.76,598.28,1427.88,598.12ZM1355,426.39l1.83-.28c.6,2.89,1.21,5.79,1.81,8.68l-1.74.37C1355.21,432.49,1351.85,430.21,1355,426.39Zm-62.42,42.44,5.7,6C1292.31,476,1291.28,474.87,1292.58,468.83Zm-12.09,28.33-8.1-4.19C1275.82,489.52,1277.21,490.2,1280.49,497.16Zm-17.14,46.05-.83,1.54-7.9-4.52C1258.47,539.45,1261.5,540.18,1263.35,543.21Zm-11.67-16.09,6.43.66c0,.86-.11,1.72-.16,2.57h-6.47Zm-3,108.84c0-.39,2.44-1,3.56-.76a3.49,3.49,0,0,1,2,2.53c.26,2.7.09,5.43.09,8.15l-1.11,1.27c-1.43-1.11-3.67-2-4.13-3.38C1248.28,641.35,1248.46,638.56,1248.65,636ZM1243.12,583c2.63,1.53,4.67,3.4,2.55,6.47-.58.85-3.42,1.35-4,.77C1238.73,587.48,1240.6,585.19,1243.12,583Z" transform="translate(-534.56 -319.77)"/><path d="M1527.79,726.88c-7.39-6.56-15.41-12.43-20.78-21a1.8,1.8,0,0,0-.58-.71c-6-3-11.86-6.18-18-8.69-1.51-.62-4.81.48-5.73,1.85s-.23,4.2-.23,6.38l2.27,1,2.93-5.85c8.59,4.39,8.06,7.78,6.08,14.5-1.23,4.21-5.71,4.43-9,3.65-5-1.19-8.55.54-12.38,3.25a65.1,65.1,0,0,1-12,6.86c-5.32,2.24-10.56,1.46-15.32-2.13-5.87-4.44-12.06-8-19.93-7.42-1.38.1-4.06-1.64-4.16-2.71-.42-4.33-.75-8.88.21-13,.81-3.48,4-3.5,6.28-.62,1,1.21,1.88,2.44,2.89,3.6a3.82,3.82,0,0,0,1.17.61c3.07-4.47,1-10-4.18-10.15-7.28-.28-14.41.79-18.68,7.8-6.7,11-16.1,19.48-25.59,27.89-3.79,3.37-7.77,6.43-8.09,12.11h56.65c-.37-4.72,2.63-9.61-1.15-14.83l-4,7.51-4.84-2.85-2.57,3.42-3.31-4.45-4.07,4.87-4.84-3.65-4.19,8.17-3.07-6.69c-1.61,1.47-3.15,3-4.85,4.38a8.63,8.63,0,0,1-4.46,1.84l23.32-33.12c0,10.31,6.32,12.67,14.18,14,3.65.62,7,3,9.59,4.23-1.65,5.91-3.2,11.45-4.79,17.17h61.09c-.5-1-1-2-1.61-2.94-1.92-3.14-3.72-6.52-6.32-9-1.63-1.57-4.63-1.7-7-2.55-1.3-.47-2.54-1.1-3.8-1.66a28.87,28.87,0,0,1,2.26-3.55c.43-.5,1.4-.58,2.15-.75,2-.44,3.91-1,5.89-1.22,14.36-1.76,12.78-1.95,15.24-15.19,11.36,10.27,19.08,23.23,27.06,35.94-3.82-1.2-7.44-2.09-10.85-3.49-3.67-1.51-7.06-3.69-10.72-5.22-1.56-.64-3.5-.37-5.26-.52.13,1.72-.06,3.54.46,5.14s1.21,3.38,1.9,5h38.52C1539.45,736.72,1533.43,731.87,1527.79,726.88Z" transform="translate(-534.56 -319.77)"/><path d="M1552.79,735.85c-1,2.7-2,5.41-3.13,8.26H1555a11.77,11.77,0,0,0-.76-8Z" transform="translate(-534.56 -319.77)"/><path d="M1358.88,732c.42-4,.08-8.14.08-12.21l-1.85-.32c-.73,2.34-1.89,4.64-2.11,7a82.64,82.64,0,0,0,0,17.65h6A20.62,20.62,0,0,1,1358.88,732Z" transform="translate(-534.56 -319.77)"/><path class="cls-1" d="M537.08,319.77l2.73,5.55a14.87,14.87,0,0,1-2.59,1c-1-1.72-1.81-3.58-2.66-5.4Z" transform="translate(-534.56 -319.77)"/><path class="cls-2" d="M1344.24,573s-14.29-1.1-18.68,4.67-3,60.7-1.92,64,2.47,8.24,2.47,8.24-.83,117,1.1,119.2-.83,3.29,14.55,3.29,241.69,5.5,245.81,0,2-50.81,2-50.81l.52-72.78a87.2,87.2,0,0,0,1.83-19c-.28-9.61,1.14-51.36,0-52.73s-81.59-2.47-81.59-2.47Z" transform="translate(-534.56 -319.77)"/><path class="cls-2" d="M1329.13,575s-5.07-1.93-5.79,13.55-3.55,63.18,7.07,63.46c0,0,42.94,16.57,125.33,15.19s121.12.83,132.66-18.95c0,0,2.57,10.17,4-43.39,0,0,2.83-26.37-1.56-29.94S1338.48,569.27,1329.13,575Z" transform="translate(-534.56 -319.77)"/><path class="cls-2" d="M1329.54,572.18s-5.06-1.52-5.79,10.67-3.55,49.75,7.07,50c0,0,42.94,13,125.33,12s121.12.65,132.66-14.92c0,0,2.57,8,4-34.18,0,0,2.83-20.76-1.56-23.57S1338.89,567.69,1329.54,572.18Z" transform="translate(-534.56 -319.77)"/><path d="M1337,432.91s8-36.25,10.69-41.45,39.39-40.14,120.59-33.45,99.33,27.19,99.33,27.19l11.19,47.71-3.38,1-8.35-31.28s-134.2-50.83-219.47,1.74L1342,431.9Z" transform="translate(-534.56 -319.77)"/><rect class="cls-2" x="901.05" y="333.15" width="45.39" height="34.33"/><rect class="cls-2" x="901.29" y="315.37" width="45.39" height="17.78"/><text class="cls-3" transform="translate(741.88 535.48)"><tspan class="cls-4">J</tspan><tspan x="48.01" y="0">obRoss</tspan></text></svg>